<?xml version="1.0" encoding="UTF-8"?>
<!DOCTYPE svg PUBLIC "-//W3C//DTD SVG 1.1//EN" "http://www.w3.org/Graphics/SVG/1.1/DTD/svg11.dtd">
<!-- Creator: CorelDRAW X8 -->
<svg xmlns="http://www.w3.org/2000/svg" xml:space="preserve" width="5.0495mm" height="3.6203mm" version="1.1" style="shape-rendering:geometricPrecision; text-rendering:geometricPrecision; image-rendering:optimizeQuality; fill-rule:evenodd; clip-rule:evenodd"
viewBox="0 0 105 75"
 xmlns:xlink="http://www.w3.org/1999/xlink">
 <defs>
  <style type="text/css">
   <![CDATA[
    .fil0 {fill:none}
    .fil1 {fill:#CC0000;fill-rule:nonzero}
   ]]>
  </style>
 </defs>
 <g id="Layer_x0020_1">
  <metadata id="CorelCorpID_0Corel-Layer"/>
  <rect class="fil0" width="104.799" height="73.8026"/>
  <path class="fil1" d="M67 45c1,1 2,2 3,4 0,2 0,3 -1,5l-3 5c-1,2 -2,3 -4,3 -2,0 -3,0 -5,-1l-13 -7 0 15c0,2 0,3 -2,4 -1,2 -2,2 -4,2l-6 0c-2,0 -3,0 -5,-2 -1,-1 -1,-2 -1,-4l0 -15 -13 7c-2,1 -4,1 -5,1 -2,0 -3,-1 -4,-3l-3 -5c-1,-2 -1,-3 -1,-5 1,-2 2,-3 3,-4l13 -7 -13 -8c-1,-1 -2,-2 -3,-4 0,-1 0,-3 1,-5l3 -5c1,-1 2,-2 4,-3 1,0 3,0 5,1l13 7 0 -15c0,-1 0,-3 1,-4 2,-1 3,-2 5,-2l6 0c2,0 3,1 4,2 2,1 2,3 2,4l0 15 13 -7c2,-1 3,-1 5,-1 2,1 3,2 4,3l3 5c1,2 1,4 1,5 -1,2 -2,3 -3,4l-13 8 13 7z"/>
 </g>
</svg>
